<?xml version="1.0" encoding="utf-8"?>
<!-- Generator: Adobe Illustrator 28.3.0, SVG Export Plug-In . SVG Version: 6.00 Build 0)  -->
<svg version="1.1" xmlns="http://www.w3.org/2000/svg" xmlns:xlink="http://www.w3.org/1999/xlink" x="0px" y="0px"
	 viewBox="0 0 145 38" style="enable-background:new 0 0 145 38;" xml:space="preserve">
<style type="text/css">
	.st0{fill:#3E3A39;}
	.st1{fill:#58C3E7;stroke:#FFFFFF;stroke-width:3;stroke-miterlimit:10;}
	.st2{fill:#58C3E7;stroke:#FFFFFF;stroke-miterlimit:10;}
	.st3{font-family:'AdobeSongStd-Light-GBpc-EUC-H';}
	.st4{font-size:10px;}
	.st5{clip-path:url(#SVGID_00000156577223655645824850000008153233936361262479_);fill:#FFFFFF;}
	.st6{clip-path:url(#SVGID_00000054252120007893138320000017835955401015598267_);fill:#FFFFFF;}
	.st7{fill:#FFFFFF;}
</style>
<g id="背景">
	<path class="st0" d="M129.8,35.6H16.2c-6.6,0-12-5.4-12-12v-9.2c0-6.6,5.4-12,12-12h113.6c6.6,0,12,5.4,12,12v9.2
		C141.8,30.2,136.4,35.6,129.8,35.6z"/>
</g>
<g id="图层_1">
	<g id="font">
		<g>
			<path class="st1" d="M48.8,30.4v-6h-9.7v-1L49,10.1h1.2v13.1h3.1v1.2h-3.1v6H48.8z M48.8,23.2V15c0-1,0-1.9,0.1-2.8l-0.1,0
				c-0.6,1.1-1.1,1.8-1.6,2.6l-6.3,8.4v0.1H48.8z"/>
			<path class="st1" d="M67.8,10.1v1.1l-9.1,19.2h-1.5l9-19v-0.1H55.9v-1.3H67.8z"/>
			<path class="st1" d="M72.4,29.4c0.6,0,1.4,0,2.3-0.2c1.7-0.3,3.2-1.1,4.4-2.4c1.3-1.4,2.3-3.5,2.7-6.4l-0.1,0
				c-1.3,1.7-3.1,2.6-5.2,2.6c-3.8,0-5.8-3-5.8-6.2c0-3.7,2.5-7.1,6.5-7.1c3.5,0,6.1,3,6.1,8.5c0,4.6-1.6,7.7-3.5,9.6
				c-1.3,1.4-3.2,2.3-4.8,2.6c-1.1,0.2-2,0.3-2.7,0.3V29.4z M72.2,16.8c0,3,1.9,5,4.6,5c2.1,0,3.9-1.1,4.8-2.6
				c0.1-0.2,0.3-0.5,0.3-0.9c0-4.3-1.6-7.2-4.9-7.2C74.1,11,72.2,13.5,72.2,16.8z"/>
			<path class="st1" d="M85.9,30.4v-0.9l1.9-1.9c5.6-5.5,8.1-8.4,8.1-11.9c0-2.3-1-4.6-4.4-4.6c-1.9,0-3.4,1-4.3,1.7l-0.6-1
				c1.3-1.2,3.1-2,5.2-2c4.2,0,5.6,3.2,5.6,5.6c0,4-2.9,7.2-8,12.2L88,29.1v0.1h10v1.3H85.9z"/>
			<path class="st1" d="M102.8,29.4c0.6,0,1.4,0,2.3-0.2c1.7-0.3,3.2-1.1,4.4-2.4c1.3-1.4,2.3-3.5,2.7-6.4l-0.1,0
				c-1.3,1.7-3.1,2.6-5.2,2.6c-3.8,0-5.8-3-5.8-6.2c0-3.7,2.5-7.1,6.5-7.1c3.5,0,6.1,3,6.1,8.5c0,4.6-1.6,7.7-3.5,9.6
				c-1.3,1.4-3.2,2.3-4.8,2.6c-1.1,0.2-2,0.3-2.7,0.3V29.4z M102.6,16.8c0,3,1.9,5,4.6,5c2.1,0,3.9-1.1,4.8-2.6
				c0.1-0.2,0.3-0.5,0.3-0.9c0-4.3-1.6-7.2-4.9-7.2C104.6,11,102.6,13.5,102.6,16.8z"/>
		</g>
		<text transform="matrix(1 0 0 1 116.261 31.1743)" class="st2 st3 st4">分钟</text>
	</g>
	<g id="耳机">
		<g id="耳机_00000151505068846613169150000015761290223341336706_">
			<g>
				<defs>
					<rect id="SVGID_1_" x="22.4" y="7.6" width="12.7" height="24.3"/>
				</defs>
				<clipPath id="SVGID_00000049906103416993902690000004622005017021926790_">
					<use xlink:href="#SVGID_1_"  style="overflow:visible;"/>
				</clipPath>
				<path style="clip-path:url(#SVGID_00000049906103416993902690000004622005017021926790_);fill:#FFFFFF;" d="M31.7,20.1
					c-0.4,0.4-0.8,0-0.8,0c0,0,0,0,0,0c-0.1-0.4-0.3-1-0.9-1.5c-0.5-0.4-1.2-0.7-2.1-0.7c-1.6,0-3.2,1-3.4,2.4
					c-0.2,1.4-0.7,5.4-0.3,7.7s1.6,3.2,1.6,3.2c2.6,1.6,5,0,5,0s3.4-2.2,4-5c0.6-2.8,0.6-8.3,0-10c-0.6-1.8-3.3-6.6-7.6-7.8
					c0,0-2.3-0.7-4.7-0.7l0,3.2c0,0,2-0.1,4.2,0.9c0.7,0.3,1.5,0.8,2.2,1.5c0.5,0.5,1.4,1.4,1.5,1.7c0.2,0.3,1.1,1.6,1.3,2.2
					C31.9,17.7,32,18.6,31.7,20.1"/>
			</g>
		</g>
		<g id="耳机_00000089536054836263905240000011168534911225131198_">
			<g>
				<defs>
					<rect id="SVGID_00000138535628409565625300000006106320673120187070_" x="9.7" y="7.6" width="12.7" height="24.3"/>
				</defs>
				<clipPath id="SVGID_00000172411806026096636600000014900601094842984619_">
					<use xlink:href="#SVGID_00000138535628409565625300000006106320673120187070_"  style="overflow:visible;"/>
				</clipPath>
				<path style="clip-path:url(#SVGID_00000172411806026096636600000014900601094842984619_);fill:#FFFFFF;" d="M13.2,20.1
					c0.4,0.4,0.8,0,0.8,0c0,0,0,0,0,0c0.1-0.4,0.3-1,0.9-1.5c0.5-0.4,1.2-0.7,2.1-0.7c1.6,0,3.2,1,3.4,2.4c0.2,1.4,0.7,5.4,0.3,7.7
					c-0.4,2.3-1.6,3.2-1.6,3.2c-2.6,1.6-5,0-5,0s-3.4-2.2-4-5c-0.6-2.8-0.6-8.3,0-10c0.6-1.8,3.3-6.6,7.6-7.8c0,0,2.3-0.7,4.7-0.7
					l0,3.2c0,0-2-0.1-4.2,0.9c-0.7,0.3-1.5,0.8-2.2,1.5c-0.5,0.5-1.4,1.4-1.5,1.7c-0.2,0.3-1.1,1.6-1.3,2.2
					C13,17.7,12.9,18.6,13.2,20.1"/>
			</g>
		</g>
	</g>
	<line class="st0" x1="22.4" y1="7.6" x2="22.4" y2="10.8"/>
	
		<rect x="20.8" y="9.1" transform="matrix(-1.836970e-16 1 -1 -1.836970e-16 31.7406 -13.1078)" class="st7" width="3.2" height="0.4"/>
</g>
</svg>
