<?xml version="1.0" encoding="utf-8"?>
<!-- Generator: Adobe Illustrator 28.3.0, SVG Export Plug-In . SVG Version: 6.00 Build 0)  -->
<svg version="1.1" id="图层_1" xmlns="http://www.w3.org/2000/svg" xmlns:xlink="http://www.w3.org/1999/xlink" x="0px" y="0px"
	 viewBox="0 0 38 38" style="enable-background:new 0 0 38 38;" xml:space="preserve">
<style type="text/css">
	.st0{fill:none;stroke:#2D64AF;stroke-width:4;stroke-miterlimit:10;}
	.st1{fill:#2D64AF;}
</style>
<circle class="st0" cx="15.9" cy="22.6" r="9.4"/>
<rect x="24.8" y="8.5" transform="matrix(0.6753 0.7375 -0.7375 0.6753 17.8012 -15.6273)" class="st1" width="3.7" height="7.9"/>
<path class="st1" d="M31.6,9.7h-8.3c-1,0-1.8-0.8-1.8-1.8V7.5c0-1,0.8-1.8,1.8-1.8h8.3c1,0,1.8,0.8,1.8,1.8v0.4
	C33.4,8.9,32.6,9.7,31.6,9.7z"/>
<path class="st1" d="M33.4,7.5v8.3c0,1-0.8,1.8-1.8,1.8h-0.4c-1,0-1.8-0.8-1.8-1.8V7.5c0-1,0.8-1.8,1.8-1.8h0.4
	C32.6,5.7,33.4,6.5,33.4,7.5z"/>
</svg>
