<?xml version="1.0" encoding="utf-8"?>
<!-- Generator: Adobe Illustrator 28.3.0, SVG Export Plug-In . SVG Version: 6.00 Build 0)  -->
<svg version="1.1" id="图层_1" xmlns="http://www.w3.org/2000/svg" xmlns:xlink="http://www.w3.org/1999/xlink" x="0px" y="0px"
	 viewBox="0 0 40 40" style="enable-background:new 0 0 40 40;" xml:space="preserve">
<style type="text/css">
	.st0{fill:#35B05F;}
	.st1{fill:#FFFFFF;}
</style>
<g>
	<g>
		<path class="st0" d="M33.16,39.99H6.92c-3.77,0-6.85-3.08-6.85-6.85V6.85C0.07,3.08,3.15,0,6.92,0h26.24
			c3.77,0,6.85,3.08,6.85,6.85v26.29C40.01,36.91,36.93,39.99,33.16,39.99z"/>
		<g>
			<g>
				<g>
					<path class="st1" d="M27.75,27.91c0,0,1.26,0.64,1.76,1.1c0,0,0.48,0.4,0.3-0.28c-0.17-0.68-0.33-1.1-0.28-1.69"/>
					<ellipse class="st1" cx="17.46" cy="17.44" rx="8.22" ry="6.87"/>
					<g>
						<ellipse class="st1" cx="25.23" cy="22.6" rx="6.86" ry="5.73"/>
					</g>
					<path class="st1" d="M14.46,23.84c-0.56,0.39-1.24,0.78-2.01,1.18c-0.71,0.27-0.47-0.26-0.47-0.26c0.42-0.85,0.4-1.92,0.4-1.92
						S14.38,23.86,14.46,23.84z"/>
				</g>
			</g>
			<path class="st0" d="M18.09,24.32c0,0-0.4-0.43-0.32-2.47c0.09-2.04,1.83-3.56,1.83-3.56s1.16-1.2,2.85-1.64
				c0,0,1.71-0.46,3.22-0.34l0.02,0.57c0,0-1.81-0.15-3.4,0.54c-1.6,0.7-2.15,1.23-2.76,2.03c-0.62,0.8-1.13,1.79-1.1,3.01
				c0.03,1.22,0.21,1.69,0.24,1.83"/>
		</g>
	</g>
	<g>
		<g>
			<circle class="st0" cx="14.44" cy="15.08" r="1.2"/>
			<circle class="st0" cx="19.94" cy="15.03" r="1.2"/>
		</g>
		<circle class="st0" cx="22.61" cy="20.54" r="0.94"/>
		<circle class="st0" cx="27.19" cy="20.57" r="0.94"/>
	</g>
</g>
</svg>
